# xmcd
#
# Track frame offsets: 
#        150
#        24990
#        53865
#        77625
#        100520
#        124003
#
# Disc length: 1950 seconds
#
# Revision: 0
# Processed by: cddbd v1.5.2PL0 Copyright (c) Steve Scherf et al.
# Submitted via: ExactAudioCopy v1.3
#
DISCID=3b079c06
DTITLE=Janiss Joplin - Woodstock Sunday August 17, 1969 [CD1]
DYEAR=2019
DGENRE=Blues Rock
TTITLE0=Raise Your Hand
TTITLE1=As Good As You've Been To This World
TTITLE2=To Love Somebody
TTITLE3=Summertime
TTITLE4=Try (Just A Little Bit Harder)
TTITLE5=Kozmic Blues
EXTD=
EXTT0=
EXTT1=
EXTT2=
EXTT3=
EXTT4=
EXTT5=
PLAYORDER=
